<svg width="36" height="36" viewBox="0 0 36 36" fill="none" xmlns="http://www.w3.org/2000/svg">
<g clip-path="url(#clip0_14_1854)">
<path d="M10.3947 6.72054C10.2824 6.3765 10.0023 6.11283 9.65208 6.0243L7.47161 5.46813L6.27068 3.56787C5.8834 2.95608 4.87406 2.95608 4.48678 3.56787L3.28584 5.46813L1.03612 6.0243C0.685966 6.1129 0.405771 6.37657 0.293482 6.72054C0.23868 6.88973 0.227509 7.07002 0.261005 7.24468C0.294501 7.41933 0.371579 7.5827 0.485084 7.71961L1.92192 9.44993L1.77672 11.6942C1.76544 11.8717 1.79917 12.0492 1.87479 12.2102C1.95041 12.3711 2.06547 12.5104 2.20929 12.615C2.50284 12.8282 2.95214 12.8777 3.28999 12.7418L5.37876 11.9106L7.46859 12.7418C7.8082 12.877 8.18662 12.827 8.47898 12.615C8.62298 12.5106 8.73817 12.3713 8.81381 12.2103C8.88945 12.0493 8.92307 11.8718 8.91154 11.6942L8.76529 9.44993L10.2031 7.71961C10.3166 7.5827 10.3937 7.41933 10.4272 7.24468C10.4607 7.07002 10.4495 6.88973 10.3947 6.72054ZM24.0542 4.2847C23.9948 4.10199 23.8867 3.93895 23.7415 3.81317C23.5963 3.68739 23.4195 3.60364 23.2302 3.57096L20.338 3.07146L18.9682 0.519117C18.6015 -0.173039 17.4686 -0.173039 17.1019 0.519117L15.7321 3.07139L12.841 3.57089C12.6518 3.60355 12.4751 3.68718 12.3299 3.81277C12.1847 3.93836 12.0765 4.10116 12.017 4.28365C11.9577 4.46641 11.9495 4.66185 11.993 4.84897C12.0366 5.03608 12.1303 5.20777 12.2642 5.34558L14.3097 7.4508L13.8916 10.3563C13.8644 10.5465 13.8896 10.7404 13.9644 10.9173C14.0391 11.0942 14.1607 11.2475 14.3159 11.3605C14.4714 11.4731 14.6546 11.5413 14.8458 11.5576C15.0371 11.5739 15.2292 11.5378 15.4015 11.4532L18.0351 10.1575L20.6698 11.4532C20.8421 11.5378 21.0343 11.5738 21.2256 11.5573C21.4169 11.5408 21.6 11.4724 21.7553 11.3595C21.9106 11.2467 22.0322 11.0936 22.107 10.9169C22.1817 10.7401 22.2069 10.5463 22.1797 10.3563L21.7605 7.45073L23.807 5.34551C23.9407 5.20788 24.0345 5.03638 24.078 4.84946C24.1216 4.66255 24.1133 4.46729 24.0542 4.2847ZM35.7775 6.72054C35.6652 6.3765 35.3851 6.11283 35.0349 6.0243L32.7841 5.46813L31.5832 3.56787C31.1959 2.95608 30.1866 2.95608 29.7993 3.56787L28.5983 5.46813L26.4189 6.0243C26.0688 6.1129 25.7886 6.37657 25.6763 6.72054C25.6215 6.88973 25.6103 7.07002 25.6438 7.24468C25.6773 7.41933 25.7544 7.5827 25.8679 7.71961L27.3047 9.44993L27.1595 11.6942C27.1483 11.8717 27.182 12.0492 27.2576 12.2102C27.3332 12.3711 27.4483 12.5104 27.5921 12.615C27.8857 12.8282 28.2646 12.8777 28.6025 12.7418L30.6913 11.9106L32.7811 12.7418C33.1207 12.877 33.4991 12.827 33.7915 12.615C34.084 12.4028 34.3181 12.0547 34.2944 11.6942L34.0778 9.44993L35.5859 7.71961C35.6994 7.5827 35.7765 7.41933 35.81 7.24468C35.8435 7.07002 35.8323 6.88973 35.7775 6.72054ZM6.39843 21.0938V29.6719H12.7266V21.0938H6.39843ZM10.6172 26.5078C10.6172 27.0908 10.1455 27.5625 9.5625 27.5625C8.97954 27.5625 8.50781 27.0908 8.50781 26.5078V24.2578C8.50781 23.6749 8.97954 23.2031 9.5625 23.2031C10.1455 23.2031 10.6172 23.6749 10.6172 24.2578V26.5078ZM23.2734 21.0938V29.6719H29.6016V21.0938H23.2734ZM27.4922 26.5078C27.4922 27.0908 27.0205 27.5625 26.4375 27.5625C25.8545 27.5625 25.3828 27.0908 25.3828 26.5078V24.2578C25.3828 23.6749 25.8545 23.2031 26.4375 23.2031C27.0205 23.2031 27.4922 23.6749 27.4922 24.2578V26.5078ZM14.8359 21.0938V29.6719H21.1641V21.0938H14.8359ZM19.0547 26.5078C19.0547 27.0908 18.583 27.5625 18 27.5625C17.417 27.5625 16.9453 27.0908 16.9453 26.5078V24.2578C16.9453 23.6749 17.417 23.2031 18 23.2031C18.583 23.2031 19.0547 23.6749 19.0547 24.2578V26.5078Z" fill="#6FCA3A"/>
<path d="M32.7656 14.7656H3.23438C1.48964 14.7656 0 16.185 0 17.9297V32.8359C0 34.5807 1.48964 36 3.23438 36H32.7656C34.5104 36 36 34.5807 36 32.8359V17.9297C36 16.185 34.5104 14.7656 32.7656 14.7656ZM31.7109 30.7266C31.7109 31.3095 31.2392 31.7812 30.6562 31.7812H5.34375C4.76079 31.7812 4.28906 31.3095 4.28906 30.7266V20.0391C4.28906 19.4561 4.76079 18.9844 5.34375 18.9844H30.6562C31.2392 18.9844 31.7109 19.4561 31.7109 20.0391V30.7266Z" fill="#6FCA3A"/>
</g>
<defs>
<clipPath id="clip0_14_1854">
<rect width="36" height="36" fill="white"/>
</clipPath>
</defs>
</svg>
