<svg width="36" height="36" viewBox="0 0 36 36" fill="none" xmlns="http://www.w3.org/2000/svg">
<path d="M27.2412 11.4469L33.0391 8.0993C32.3656 7.08169 31.5913 6.13449 30.728 5.27203C27.578 2.12203 23.4661 0.252422 19.0547 0V6.71555C22.429 7.02844 25.3779 8.82633 27.2412 11.4469ZM6.66703 18C6.66703 16.3132 7.03758 14.7122 7.70133 13.2722L1.90336 9.92461C0.658125 12.3989 0 15.1488 0 18C0 20.8512 0.658125 23.6011 1.90336 26.0754L7.69922 22.7292C7.0207 21.2534 6.66703 19.6432 6.66703 18ZM16.9453 6.71555V0C12.5339 0.252422 8.42203 2.12203 5.27203 5.27203C4.40869 6.13449 3.63439 7.08169 2.96086 8.0993L8.75883 11.4469C10.6221 8.82633 13.571 7.02844 16.9453 6.71555ZM8.24836 27.7516V24.8477L2.96086 27.9007C3.63439 28.9183 4.40869 29.8655 5.27203 30.728C8.42203 33.878 12.5339 35.7476 16.9453 36V29.2838C15.2775 29.1291 13.6666 28.608 12.2238 27.7516H8.24836ZM19.0547 29.2845V36C23.4661 35.7476 27.578 33.878 30.728 30.728C31.5913 29.8655 32.3656 28.9183 33.0391 27.9007L27.2412 24.5531C25.3779 27.1737 22.429 28.9716 19.0547 29.2845ZM34.0966 9.92461L28.2987 13.2722C28.9624 14.7122 29.333 16.3132 29.333 18C29.333 19.6868 28.9624 21.2878 28.2987 22.7278L34.0966 26.0754C35.3419 23.6011 36 20.8512 36 18C36 15.1488 35.3419 12.3989 34.0966 9.92461ZM27.2236 18C27.2236 12.9143 23.0857 8.77641 18 8.77641C12.9143 8.77641 8.77641 12.9143 8.77641 18C8.77641 19.7466 9.26649 21.446 10.1946 22.9163L10.3577 23.1743V25.6423H12.8257L13.0837 25.8054C14.554 26.7335 16.2534 27.2236 18 27.2236C23.0857 27.2236 27.2236 23.0857 27.2236 18ZM19.0547 24.1875H16.9453V22.0781H19.0547V24.1875ZM19.0547 19.2642V19.9688H16.9453V17.3067H18C18.8944 17.3067 19.6221 16.579 19.6221 15.6846C19.6221 14.7902 18.8944 14.0625 18 14.0625C17.1056 14.0625 16.3779 14.7902 16.3779 15.6846H14.2685C14.2685 13.6273 15.9427 11.9531 18 11.9531C20.0573 11.9531 21.7315 13.6273 21.7315 15.6846C21.7315 17.3756 20.6002 18.8079 19.0547 19.2642Z" fill="#6FCA3A"/>
</svg>
