<svg width="25" height="24" viewBox="0 0 25 24" fill="none" xmlns="http://www.w3.org/2000/svg">
<path fill-rule="evenodd" clip-rule="evenodd" d="M2.68589 7.82274C2.16669 8.77128 2.16669 9.91549 2.16669 12.2039V13.725C2.16669 17.6258 2.16669 19.5763 3.33826 20.7881C4.50983 22 6.39545 22 10.1667 22H14.1667C17.9379 22 19.8235 22 20.9951 20.7881C22.1667 19.5763 22.1667 17.6258 22.1667 13.725V12.2039C22.1667 9.91549 22.1667 8.77128 21.6475 7.82274C21.1283 6.87421 20.1797 6.28551 18.2827 5.10812L16.2827 3.86687C14.2773 2.62229 13.2746 2 12.1667 2C11.0588 2 10.0561 2.62229 8.05072 3.86687L6.05072 5.10813C4.15363 6.28551 3.20509 6.87421 2.68589 7.82274ZM11.4167 18C11.4167 18.4142 11.7525 18.75 12.1667 18.75C12.5809 18.75 12.9167 18.4142 12.9167 18V15C12.9167 14.5858 12.5809 14.25 12.1667 14.25C11.7525 14.25 11.4167 14.5858 11.4167 15V18Z" fill="#9A9EA6"/>
</svg>
