<svg width="25" height="24" viewBox="0 0 25 24" fill="none" xmlns="http://www.w3.org/2000/svg">
<path d="M17.99 9.6L6.1 16.77C5.4 17.19 4.5 16.69 4.5 15.87V7.87C4.5 4.38 8.27 2.2 11.3 3.94L15.89 6.58L17.98 7.78C18.67 8.19 18.68 9.19 17.99 9.6Z" fill="#6FCA3A"/>
<path d="M18.5908 15.46L14.5408 17.8L10.5008 20.13C9.05079 20.96 7.41079 20.79 6.22079 19.95C5.64079 19.55 5.71079 18.66 6.32079 18.3L19.0308 10.68C19.6308 10.32 20.4208 10.66 20.5308 11.35C20.7808 12.9 20.1408 14.57 18.5908 15.46Z" fill="#6FCA3A"/>
</svg>
