<svg width="138" height="117" viewBox="0 0 138 117" fill="none" xmlns="http://www.w3.org/2000/svg">
<path d="M138.001 15.8385H69V117H138.001V15.8385Z" fill="#4B5FAE"/>
<path d="M135.596 15.8385H69V114.283H135.596V15.8385Z" fill="#D9DEFA"/>
<path d="M135.596 10.743H69V109.188H135.596V10.743Z" fill="url(#paint0_linear_231_709)"/>
<path d="M131.238 104.029C115.759 110.314 69 109.186 69 109.186V10.7417C69 10.7417 105.69 9.9122 131.238 5.58459C131.238 22.8081 131.238 83.9368 131.238 104.029Z" fill="url(#paint1_linear_231_709)"/>
<path d="M120.865 102.169C107.964 108.917 69 109.188 69 109.188V10.743C69 10.743 99.5749 8.81582 120.865 3.72388C120.865 20.9462 120.865 82.0748 120.865 102.169Z" fill="url(#paint2_linear_231_709)"/>
<path d="M110.493 100.307C100.171 107.518 69 109.188 69 109.188V10.743C69 10.743 93.4602 7.71942 110.493 1.86194C110.493 19.0854 110.493 80.2141 110.493 100.307Z" fill="url(#paint3_linear_231_709)"/>
<path d="M100.12 98.4446C92.3769 106.118 69 109.186 69 109.186V10.7417C69 10.7417 87.3454 6.62061 100.12 0C100.12 17.2235 100.12 78.3522 100.12 98.4446Z" fill="url(#paint4_linear_231_709)"/>
<path d="M69.0006 15.8385H0V117H69.0006V15.8385Z" fill="#4B5FAE"/>
<path d="M69.0004 15.8385H2.4043V114.283H69.0004V15.8385Z" fill="#D9DEFA"/>
<path d="M69.0004 10.743H2.4043V109.188H69.0004V10.743Z" fill="url(#paint5_linear_231_709)"/>
<path d="M6.76367 104.029C22.2429 110.314 69.0015 109.186 69.0015 109.186V10.7417C69.0015 10.7417 32.3119 9.9122 6.76367 5.58459C6.76367 22.8081 6.76367 83.9368 6.76367 104.029Z" fill="url(#paint6_linear_231_709)"/>
<path d="M17.1367 102.169C30.0359 108.917 69.0014 109.188 69.0014 109.188V10.743C69.0014 10.743 38.4265 8.81582 17.1367 3.72388C17.1367 20.9462 17.1367 82.0748 17.1367 102.169Z" fill="url(#paint7_linear_231_709)"/>
<path d="M27.5078 100.307C37.8293 107.518 69.0005 109.188 69.0005 109.188V10.743C69.0005 10.743 44.5404 7.71942 27.5078 1.86194C27.5078 19.0854 27.5078 80.2141 27.5078 100.307Z" fill="url(#paint8_linear_231_709)"/>
<path d="M37.8789 98.4446C45.6203 106.118 68.9984 109.186 68.9984 109.186V10.7417C68.9984 10.7417 50.653 6.62061 37.8789 0C37.8789 17.2235 37.8789 78.3522 37.8789 98.4446Z" fill="url(#paint9_linear_231_709)"/>
<path d="M76.2635 113.244L74.6055 111.187L72.9031 113.244C72.9031 102.138 73.58 94.9381 74.234 87.9746C74.7979 81.9795 75.3293 76.3164 75.3293 68.7358C75.3293 34.2973 69.1941 10.8142 69.1328 10.5824L72.3789 9.71176C72.4427 9.94843 78.6896 33.8602 78.6896 68.7358C78.6896 76.4758 78.151 82.2149 77.5775 88.2909C76.9331 95.1784 76.2635 102.297 76.2635 113.244Z" fill="url(#paint10_linear_231_709)"/>
<defs>
<linearGradient id="paint0_linear_231_709" x1="133.293" y1="59.9649" x2="88.6832" y2="59.9649" gradientUnits="userSpaceOnUse">
<stop stop-color="white"/>
<stop offset="0.367" stop-color="#F5F6FE"/>
<stop offset="0.9959" stop-color="#D9DEFA"/>
<stop offset="1" stop-color="#D9DEFA"/>
</linearGradient>
<linearGradient id="paint1_linear_231_709" x1="136.868" y1="52.6558" x2="114.922" y2="55.7987" gradientUnits="userSpaceOnUse">
<stop stop-color="white"/>
<stop offset="0.367" stop-color="#F5F6FE"/>
<stop offset="0.9959" stop-color="#D9DEFA"/>
<stop offset="1" stop-color="#D9DEFA"/>
</linearGradient>
<linearGradient id="paint2_linear_231_709" x1="122.672" y1="56.4553" x2="98.4461" y2="56.4553" gradientUnits="userSpaceOnUse">
<stop stop-color="white"/>
<stop offset="0.367" stop-color="#F5F6FE"/>
<stop offset="0.9959" stop-color="#D9DEFA"/>
<stop offset="1" stop-color="#D9DEFA"/>
</linearGradient>
<linearGradient id="paint3_linear_231_709" x1="115.007" y1="55.5243" x2="88.5503" y2="55.5243" gradientUnits="userSpaceOnUse">
<stop stop-color="white"/>
<stop offset="0.367" stop-color="#F5F6FE"/>
<stop offset="0.9959" stop-color="#D9DEFA"/>
<stop offset="1" stop-color="#D9DEFA"/>
</linearGradient>
<linearGradient id="paint4_linear_231_709" x1="98.6156" y1="51.2951" x2="55.465" y2="51.2951" gradientUnits="userSpaceOnUse">
<stop stop-color="white"/>
<stop offset="0.367" stop-color="#F5F6FE"/>
<stop offset="0.9959" stop-color="#D9DEFA"/>
<stop offset="1" stop-color="#D9DEFA"/>
</linearGradient>
<linearGradient id="paint5_linear_231_709" x1="4.70628" y1="59.9649" x2="49.3165" y2="59.9649" gradientUnits="userSpaceOnUse">
<stop stop-color="white"/>
<stop offset="0.367" stop-color="#F5F6FE"/>
<stop offset="0.9959" stop-color="#D9DEFA"/>
<stop offset="1" stop-color="#D9DEFA"/>
</linearGradient>
<linearGradient id="paint6_linear_231_709" x1="1.13345" y1="52.6558" x2="23.0787" y2="55.7987" gradientUnits="userSpaceOnUse">
<stop stop-color="white"/>
<stop offset="0.367" stop-color="#F5F6FE"/>
<stop offset="0.9959" stop-color="#D9DEFA"/>
<stop offset="1" stop-color="#D9DEFA"/>
</linearGradient>
<linearGradient id="paint7_linear_231_709" x1="15.3293" y1="56.4553" x2="39.5549" y2="56.4553" gradientUnits="userSpaceOnUse">
<stop stop-color="white"/>
<stop offset="0.367" stop-color="#F5F6FE"/>
<stop offset="0.9959" stop-color="#D9DEFA"/>
<stop offset="1" stop-color="#D9DEFA"/>
</linearGradient>
<linearGradient id="paint8_linear_231_709" x1="22.9929" y1="55.5243" x2="49.4498" y2="55.5243" gradientUnits="userSpaceOnUse">
<stop stop-color="white"/>
<stop offset="0.367" stop-color="#F5F6FE"/>
<stop offset="0.9959" stop-color="#D9DEFA"/>
<stop offset="1" stop-color="#D9DEFA"/>
</linearGradient>
<linearGradient id="paint9_linear_231_709" x1="39.3835" y1="51.2951" x2="82.5343" y2="51.2951" gradientUnits="userSpaceOnUse">
<stop stop-color="white"/>
<stop offset="0.367" stop-color="#F5F6FE"/>
<stop offset="0.9959" stop-color="#D9DEFA"/>
<stop offset="1" stop-color="#D9DEFA"/>
</linearGradient>
<linearGradient id="paint10_linear_231_709" x1="78.1795" y1="106.126" x2="67.7307" y2="7.14935" gradientUnits="userSpaceOnUse">
<stop stop-color="#FAAA3A"/>
<stop offset="1" stop-color="#FA8532"/>
</linearGradient>
</defs>
</svg>
