<svg width="25" height="24" viewBox="0 0 25 24" fill="none" xmlns="http://www.w3.org/2000/svg">
<path d="M22.832 4.84999V16.74C22.832 17.71 22.042 18.6 21.072 18.72L20.762 18.76C19.122 18.98 16.812 19.66 14.952 20.44C14.302 20.71 13.582 20.22 13.582 19.51V5.59999C13.582 5.22999 13.792 4.88999 14.122 4.70999C15.952 3.71999 18.722 2.83999 20.602 2.67999H20.662C21.862 2.67999 22.832 3.64999 22.832 4.84999Z" fill="#9A9EA6"/>
<path d="M11.5423 4.70999C9.71227 3.71999 6.94227 2.83999 5.06227 2.67999H4.99227C3.79227 2.67999 2.82227 3.64999 2.82227 4.84999V16.74C2.82227 17.71 3.61227 18.6 4.58227 18.72L4.89227 18.76C6.53227 18.98 8.84227 19.66 10.7023 20.44C11.3523 20.71 12.0723 20.22 12.0723 19.51V5.59999C12.0723 5.21999 11.8723 4.88999 11.5423 4.70999ZM5.83227 7.73999H8.08227C8.49227 7.73999 8.83227 8.07999 8.83227 8.48999C8.83227 8.90999 8.49227 9.23999 8.08227 9.23999H5.83227C5.42227 9.23999 5.08227 8.90999 5.08227 8.48999C5.08227 8.07999 5.42227 7.73999 5.83227 7.73999ZM8.83227 12.24H5.83227C5.42227 12.24 5.08227 11.91 5.08227 11.49C5.08227 11.08 5.42227 10.74 5.83227 10.74H8.83227C9.24227 10.74 9.58227 11.08 9.58227 11.49C9.58227 11.91 9.24227 12.24 8.83227 12.24Z" fill="#9A9EA6"/>
</svg>
