<svg width="90" height="90" viewBox="0 0 90 90" fill="none" xmlns="http://www.w3.org/2000/svg">
<g clip-path="url(#clip0_175_3020)">
<path d="M75.9375 5.625H54.8438C52.6066 5.62686 50.4615 6.51641 48.8796 8.09834C47.2977 9.68028 46.4081 11.8253 46.4062 14.0625V35.1562C46.4081 37.3934 47.2977 39.5385 48.8796 41.1204C50.4615 42.7023 52.6066 43.5919 54.8438 43.5938H75.9375C78.1747 43.5919 80.3197 42.7023 81.9017 41.1204C83.4836 39.5385 84.3731 37.3934 84.375 35.1562V14.0625C84.3731 11.8253 83.4836 9.68028 81.9017 8.09834C80.3197 6.51641 78.1747 5.62686 75.9375 5.625ZM72.8438 30.6562C72.8411 31.829 72.3732 32.9527 71.5426 33.7807C70.712 34.6086 69.5868 35.073 68.4141 35.0719H62.3672C61.1945 35.073 60.0692 34.6086 59.2387 33.7807C58.4081 32.9527 57.9401 31.829 57.9375 30.6562V15.5531C57.9375 15.1802 58.0857 14.8225 58.3494 14.5588C58.6131 14.295 58.9708 14.1469 59.3438 14.1469C59.7167 14.1469 60.0744 14.295 60.3381 14.5588C60.6018 14.8225 60.75 15.1802 60.75 15.5531V30.6562C60.753 31.0829 60.9248 31.4911 61.2278 31.7915C61.5308 32.0919 61.9405 32.2601 62.3672 32.2594H68.4141C68.8408 32.2601 69.2504 32.0919 69.5535 31.7915C69.8565 31.4911 70.0283 31.0829 70.0312 30.6562V15.5531C70.0312 15.1802 70.1794 14.8225 70.4431 14.5588C70.7069 14.295 71.0645 14.1469 71.4375 14.1469C71.8105 14.1469 72.1681 14.295 72.4319 14.5588C72.6956 14.8225 72.8438 15.1802 72.8438 15.5531V30.6562ZM75.9375 46.4062H54.8438C52.6066 46.4081 50.4615 47.2977 48.8796 48.8796C47.2977 50.4615 46.4081 52.6066 46.4062 54.8438V75.9375C46.4081 78.1747 47.2977 80.3197 48.8796 81.9017C50.4615 83.4836 52.6066 84.3731 54.8438 84.375H75.9375C78.1747 84.3731 80.3197 83.4836 81.9017 81.9017C83.4836 80.3197 84.3731 78.1747 84.375 75.9375V54.8438C84.3731 52.6066 83.4836 50.4615 81.9017 48.8796C80.3197 47.2977 78.1747 46.4081 75.9375 46.4062ZM71.4375 75.8531H59.3438C59.091 75.8529 58.8428 75.785 58.6252 75.6564C58.4076 75.5278 58.2284 75.3432 58.1063 75.1219C57.9891 74.8957 57.9339 74.6426 57.9462 74.3882C57.9586 74.1338 58.038 73.8872 58.1766 73.6734L68.8078 57.7406H59.3438C58.9708 57.7406 58.6131 57.5925 58.3494 57.3287C58.0857 57.065 57.9375 56.7073 57.9375 56.3344C57.9375 55.9614 58.0857 55.6037 58.3494 55.34C58.6131 55.0763 58.9708 54.9281 59.3438 54.9281H71.4375C71.6903 54.9283 71.9384 54.9963 72.156 55.1249C72.3737 55.2535 72.5529 55.438 72.675 55.6594C72.7922 55.8855 72.8474 56.1387 72.835 56.3931C72.8227 56.6475 72.7432 56.8941 72.6047 57.1078L61.9734 73.0406H71.4375C71.8105 73.0406 72.1681 73.1888 72.4319 73.4525C72.6956 73.7162 72.8438 74.0739 72.8438 74.4469C72.8438 74.8198 72.6956 75.1775 72.4319 75.4412C72.1681 75.705 71.8105 75.8531 71.4375 75.8531ZM35.1562 46.4062H14.0625C11.8253 46.4081 9.68028 47.2977 8.09834 48.8796C6.51641 50.4615 5.62686 52.6066 5.625 54.8438V75.9375C5.62686 78.1747 6.51641 80.3197 8.09834 81.9017C9.68028 83.4836 11.8253 84.3731 14.0625 84.375H35.1562C37.3934 84.3731 39.5385 83.4836 41.1204 81.9017C42.7023 80.3197 43.5919 78.1747 43.5938 75.9375V54.8438C43.5919 52.6066 42.7023 50.4615 41.1204 48.8796C39.5385 47.2977 37.3934 46.4081 35.1562 46.4062ZM26.0156 72.1828C26.0156 72.5558 25.8675 72.9135 25.6037 73.1772C25.34 73.4409 24.9823 73.5891 24.6094 73.5891C24.2364 73.5891 23.8787 73.4409 23.615 73.1772C23.3513 72.9135 23.2031 72.5558 23.2031 72.1828V54.0562C23.2031 53.6833 23.3513 53.3256 23.615 53.0619C23.8787 52.7982 24.2364 52.65 24.6094 52.65C24.9823 52.65 25.34 52.7982 25.6037 53.0619C25.8675 53.3256 26.0156 53.6833 26.0156 54.0562V72.1828ZM34.425 5.625H14.7938C12.3622 5.62537 10.0303 6.59148 8.31088 8.31088C6.59148 10.0303 5.62537 12.3622 5.625 14.7938V34.425C5.62537 36.8566 6.59148 39.1885 8.31088 40.9079C10.0303 42.6273 12.3622 43.5934 14.7938 43.5938H34.425C36.8566 43.5934 39.1885 42.6273 40.9079 40.9079C42.6273 39.1885 43.5934 36.8566 43.5938 34.425V14.7938C43.5934 12.3622 42.6273 10.0303 40.9079 8.31088C39.1885 6.59148 36.8566 5.62537 34.425 5.625ZM35.1844 35.0719H20.4328C19.564 35.0711 18.7311 34.7257 18.1168 34.1114C17.5024 33.4971 17.157 32.6641 17.1562 31.7953V17.4234C17.157 16.5547 17.5024 15.7217 18.1168 15.1074C18.7311 14.4931 19.564 14.1476 20.4328 14.1469H28.7859C29.6547 14.1476 30.4877 14.4931 31.102 15.1074C31.7163 15.7217 32.0618 16.5547 32.0625 17.4234V31.7953C32.0594 31.9515 32.0405 32.107 32.0063 32.2594H35.1844C35.5573 32.2594 35.915 32.4075 36.1787 32.6713C36.4425 32.935 36.5906 33.2927 36.5906 33.6656C36.5906 34.0386 36.4425 34.3963 36.1787 34.66C35.915 34.9237 35.5573 35.0719 35.1844 35.0719Z" fill="#6FCA3A"/>
<path d="M28.7859 16.9594H20.4328C20.1765 16.9594 19.9688 17.1671 19.9688 17.4234V31.7953C19.9688 32.0516 20.1765 32.2594 20.4328 32.2594H28.7859C29.0422 32.2594 29.25 32.0516 29.25 31.7953V17.4234C29.25 17.1671 29.0422 16.9594 28.7859 16.9594Z" fill="#6FCA3A"/>
</g>
<defs>
<clipPath id="clip0_175_3020">
<rect width="90" height="90" fill="white"/>
</clipPath>
</defs>
</svg>
