<svg width="23" height="17" viewBox="0 0 23 17" fill="none" xmlns="http://www.w3.org/2000/svg">
<path d="M5.67586 6.76755C5.76373 6.76755 5.85111 6.76755 5.93898 6.76755C10.8318 6.76755 15.7241 6.76705 20.617 6.76805C21.5727 6.76805 22.2782 7.47109 22.2634 8.39999C22.2502 9.23096 21.5894 9.92401 20.7721 9.96348C20.6739 9.96798 20.5757 9.96648 20.4775 9.96648C15.6338 9.96648 10.7906 9.96648 5.94683 9.96648C5.85749 9.96648 5.76864 9.96648 5.61891 9.96648C5.71169 10.0644 5.76864 10.1274 5.82755 10.1873C6.95515 11.3366 8.08373 12.4849 9.21084 13.6341C9.65413 14.0858 9.81171 14.6215 9.61437 15.2341C9.41702 15.8457 8.99828 16.2279 8.37091 16.3404C7.85104 16.4333 7.40285 16.2674 7.03026 15.8882C6.47455 15.323 5.91934 14.7579 5.36364 14.1922C3.83595 12.6373 2.31269 11.0788 0.778616 9.53026C0.345149 9.09255 0.156642 8.58487 0.324531 7.99076C0.398166 7.73043 0.546419 7.4616 0.732962 7.26972C2.82911 5.11612 4.93558 2.9725 7.04646 0.833886C7.67088 0.201795 8.62078 0.215785 9.2241 0.838883C9.84853 1.48347 9.8608 2.42736 9.23097 3.07644C8.10975 4.23169 6.97724 5.37595 5.84767 6.52321C5.78435 6.58767 5.70777 6.63863 5.63757 6.6956C5.65033 6.71958 5.66309 6.74356 5.67586 6.76755Z" fill="black"/>
</svg>
