<svg width="32" height="32" viewBox="0 0 32 32" fill="none" xmlns="http://www.w3.org/2000/svg">
<path d="M4.91016 3.68484H12.6677V26.7879H4.91016V3.68484Z" fill="#EBB99C"/>
<path d="M11.1018 19.5345V8.50424C11.1018 8.30546 10.9369 8.14061 10.7382 8.14061C10.5394 8.14061 10.3745 8.30546 10.3745 8.50424V19.5345H11.1018ZM6.84482 21.6921C6.64603 21.6921 6.48118 21.5273 6.48118 21.3285V8.50424C6.48118 8.30546 6.64603 8.14061 6.84482 8.14061C7.04361 8.14061 7.20845 8.30546 7.20845 8.50424V21.3285C7.20845 21.5273 7.04361 21.6921 6.84482 21.6921ZM8.79391 23.7915C8.59512 23.7915 8.43027 23.6267 8.43027 23.4279V6.40485C8.43027 6.20606 8.59512 6.04121 8.79391 6.04121C8.9927 6.04121 9.15755 6.20606 9.15755 6.40485V23.4279C9.15755 23.6267 8.9927 23.7915 8.79391 23.7915ZM3.27148 26.7879H14.3115V28.8339H3.27148V26.7879Z" fill="#F38177"/>
<path d="M1.58398 28.8339H15.9985V30.88H1.58398V28.8339Z" fill="#EBB99C"/>
<path d="M29.9881 4.69333C29.062 3.92727 27.6802 4.06303 26.8269 4.91636L20.8778 10.8606C19.9808 11.7576 19.9808 13.217 20.8778 14.1188C21.7748 15.0206 23.2342 15.0158 24.136 14.1188L30.153 8.10182C30.38 7.8745 30.5571 7.60222 30.6728 7.30245C30.7884 7.00268 30.8402 6.68204 30.8247 6.3611C30.8091 6.04017 30.7267 5.72602 30.5826 5.43881C30.4386 5.1516 30.2361 4.89768 29.9881 4.69333Z" fill="#FCB73E"/>
<path d="M29.9198 26.2788H7.67496C6.77314 26.2788 6.04102 27.0109 6.04102 27.9127C6.04102 28.8145 6.77314 29.5467 7.67496 29.5467H29.9198C29.6362 29.0488 29.4871 28.4857 29.4871 27.9127C29.4871 27.3398 29.6362 26.7767 29.9198 26.2788Z" fill="#E7E7E7"/>
<path d="M29.92 26.2788H28.9503C28.6667 26.7758 28.5176 27.3381 28.5176 27.9103C28.5176 28.4825 28.6667 29.0448 28.9503 29.5418H29.92C29.6364 29.0448 29.4873 28.4825 29.4873 27.9103C29.4873 27.3381 29.6364 26.7758 29.92 26.2788Z" fill="black" fill-opacity="0.063"/>
<path d="M10.4727 20.0436H25.4399C26.3417 20.0436 27.0739 20.7758 27.0739 21.6776C27.0739 22.5794 26.3417 23.3115 25.4399 23.3115H10.4727C10.7562 22.8137 10.9054 22.2505 10.9054 21.6776C10.9054 21.1046 10.7562 20.5415 10.4727 20.0436Z" fill="#E7E7E7"/>
<path d="M23.8586 21.9055L22.6998 21.0279L21.541 21.9055V19.297H23.8586V21.9055Z" fill="#3D5670"/>
<path d="M13.5793 28.1018L12.4205 27.2242L11.2617 28.1018V25.4933H13.5793V28.1018Z" fill="#D9903B"/>
<path d="M30.2289 29.5418H7.67373C6.66039 29.5418 5.86524 28.6206 6.07857 27.5685C6.23373 26.8073 6.94161 26.2788 7.71736 26.2788H30.2337C30.6458 26.2788 30.9755 25.9442 30.9755 25.537C30.9755 25.1297 30.641 24.7952 30.2337 24.7952H7.80464C6.09797 24.7952 4.60948 26.1091 4.55615 27.8158C4.54336 28.2332 4.61454 28.649 4.76545 29.0384C4.91637 29.4278 5.14396 29.7829 5.43472 30.0827C5.72548 30.3825 6.07348 30.6209 6.45809 30.7837C6.84271 30.9464 7.25609 31.0303 7.67373 31.0303H30.2337C30.6458 31.0303 30.9755 30.6958 30.9755 30.2885C30.9755 29.8764 30.641 29.5418 30.2289 29.5418Z" fill="#3D5670"/>
<g opacity="0.1">
<path d="M30.0064 25.537C30.0064 25.9491 29.6719 26.2788 29.2646 26.2788H30.2343C30.6464 26.2788 30.9761 25.9442 30.9761 25.537C30.9761 25.1297 30.6416 24.7952 30.2343 24.7952H29.2646C29.6719 24.7952 30.0064 25.1248 30.0064 25.537ZM30.2295 29.5418H29.2598C29.4565 29.5418 29.6452 29.62 29.7843 29.7591C29.9234 29.8982 30.0016 30.0869 30.0016 30.2836C30.0016 30.4804 29.9234 30.6691 29.7843 30.8082C29.6452 30.9473 29.4565 31.0255 29.2598 31.0255H30.2295C30.6416 31.0255 30.9713 30.6909 30.9713 30.2836C30.9761 29.8764 30.6416 29.5418 30.2295 29.5418Z" fill="#252525"/>
</g>
<path d="M10.1578 23.3067H25.4403C26.4536 23.3067 27.2487 22.3855 27.0354 21.3333C26.8803 20.5721 26.1724 20.0436 25.3966 20.0436H10.1578C9.74571 20.0436 9.41602 19.7091 9.41602 19.3018C9.41602 18.8945 9.75056 18.56 10.1578 18.56H25.3093C27.016 18.56 28.5045 19.8739 28.5578 21.5806C28.5706 21.998 28.4994 22.4138 28.3485 22.8032C28.1976 23.1926 27.97 23.5478 27.6793 23.8476C27.3885 24.1474 27.0405 24.3857 26.6559 24.5485C26.2713 24.7113 25.8579 24.7952 25.4403 24.7951H10.1578C9.74571 24.7951 9.41602 24.4606 9.41602 24.0533C9.41602 23.6364 9.75056 23.3067 10.1578 23.3067Z" fill="#55A6EF"/>
<path d="M25.3076 18.5552H24.3379C26.0446 18.5552 27.533 19.8691 27.5864 21.5758C27.5992 21.9932 27.528 22.409 27.3771 22.7984C27.2262 23.1878 26.9986 23.5429 26.7078 23.8427C26.4171 24.1425 26.069 24.3809 25.6844 24.5437C25.2998 24.7064 24.8864 24.7903 24.4688 24.7903H25.4385C27.1936 24.7903 28.6094 23.3406 28.5561 21.5758C28.5027 19.8691 27.0143 18.5552 25.3076 18.5552Z" fill="black" fill-opacity="0.063"/>
<path d="M13.8419 0.969696H3.7425C2.24431 0.969696 1.02734 2.18667 1.02734 3.68485C1.02734 5.18303 2.24431 6.4 3.7425 6.4C5.24068 6.4 6.45765 5.18303 6.45765 3.68485H11.1267C11.1267 5.18303 12.3437 6.4 13.8419 6.4C15.3401 6.4 16.557 5.18303 16.557 3.68485C16.557 2.18667 15.3449 0.969696 13.8419 0.969696Z" fill="#F38177"/>
<path d="M29.0127 7.47151H28.043L28.6927 6.82181C28.8333 6.68121 28.8333 6.44848 28.6927 6.30787C28.5521 6.16727 28.3193 6.16727 28.1787 6.30787L27.529 6.95757V5.98787C27.529 5.78909 27.3642 5.62424 27.1654 5.62424C26.9666 5.62424 26.8018 5.78909 26.8018 5.98787V7.68484L26.2006 8.28606V7.31636C26.2006 7.11757 26.0357 6.95272 25.8369 6.95272C25.6381 6.95272 25.4733 7.11757 25.4733 7.31636V9.01333L24.8721 9.61454V8.64484C24.8721 8.44606 24.7072 8.28121 24.5084 8.28121C24.3096 8.28121 24.1448 8.44606 24.1448 8.64484V10.3418L23.5436 10.943V9.97333C23.5436 9.77454 23.3787 9.60969 23.1799 9.60969C22.9812 9.60969 22.8163 9.77454 22.8163 9.97333V11.6703L22.2151 12.2715V11.3018C22.2151 11.103 22.0502 10.9382 21.8515 10.9382C21.6527 10.9382 21.4878 11.103 21.4878 11.3018V12.9988L17.7012 16.7854C17.5606 16.9261 17.5606 17.1588 17.7012 17.2994C17.7739 17.3721 17.866 17.4061 17.9581 17.4061C18.0502 17.4061 18.1424 17.3721 18.2151 17.2994L22.0018 13.5127H23.6987C23.8975 13.5127 24.0624 13.3479 24.0624 13.1491C24.0624 12.9503 23.8975 12.7854 23.6987 12.7854H22.729L23.3302 12.1842H25.0272C25.226 12.1842 25.3909 12.0194 25.3909 11.8206C25.3909 11.6218 25.226 11.457 25.0272 11.457H24.0575L24.6587 10.8558H26.3557C26.5545 10.8558 26.7193 10.6909 26.7193 10.4921C26.7193 10.2933 26.5545 10.1285 26.3557 10.1285H25.386L25.9872 9.52727H27.6842C27.883 9.52727 28.0478 9.36242 28.0478 9.16363C28.0478 8.96484 27.883 8.79999 27.6842 8.79999H26.7145L27.3157 8.19878H29.0127C29.2115 8.19878 29.3763 8.03393 29.3763 7.83515C29.3763 7.63636 29.2115 7.47151 29.0127 7.47151Z" fill="#D9903B"/>
<path d="M3.74337 4.89697C4.41281 4.89697 4.95549 4.35428 4.95549 3.68485C4.95549 3.01541 4.41281 2.47272 3.74337 2.47272C3.07394 2.47272 2.53125 3.01541 2.53125 3.68485C2.53125 4.35428 3.07394 4.89697 3.74337 4.89697Z" fill="#EBB99C"/>
<path d="M13.841 4.89697C14.5105 4.89697 15.0531 4.35428 15.0531 3.68485C15.0531 3.01541 14.5105 2.47272 13.841 2.47272C13.1716 2.47272 12.6289 3.01541 12.6289 3.68485C12.6289 4.35428 13.1716 4.89697 13.841 4.89697Z" fill="#EBB99C"/>
<path d="M29.9869 4.69333C29.8608 4.59151 29.7299 4.50424 29.5893 4.43636C30.0451 5.30424 29.9142 6.4 29.182 7.13212L23.1651 13.1491C22.4378 13.8764 21.342 14.0073 20.4742 13.5515C20.5808 13.7551 20.7069 13.9491 20.8766 14.1188C21.7736 15.0158 23.2329 15.0158 24.1348 14.1188L30.1517 8.10182C30.3788 7.87449 30.5559 7.60221 30.6715 7.30245C30.7872 7.00268 30.839 6.68204 30.8234 6.3611C30.8079 6.04016 30.7255 5.72601 30.5814 5.43881C30.4374 5.1516 30.2348 4.89768 29.9869 4.69333ZM4.1881 2.56C4.24143 2.7006 4.27537 2.85091 4.27537 3.01091C4.27537 3.33238 4.14766 3.64069 3.92035 3.86801C3.69303 4.09532 3.38472 4.22303 3.06325 4.22303C2.9081 4.22303 2.75779 4.18909 2.61719 4.13576C2.72207 4.39699 2.91461 4.61358 3.16176 4.74834C3.40891 4.88311 3.69527 4.92765 3.97167 4.87431C4.24808 4.82098 4.49731 4.67311 4.67658 4.45606C4.85585 4.23902 4.95399 3.96635 4.95416 3.68485C4.95416 3.17576 4.63416 2.73939 4.1881 2.56ZM14.2923 2.56C14.3457 2.7006 14.3796 2.85091 14.3796 3.01091C14.3796 3.33238 14.2519 3.64069 14.0246 3.86801C13.7973 4.09532 13.489 4.22303 13.1675 4.22303C13.0075 4.22303 12.8572 4.18909 12.7166 4.13576C12.7911 4.32195 12.9107 4.48675 13.0646 4.61537C13.2185 4.74399 13.4019 4.83241 13.5983 4.87271C13.7948 4.91302 13.9982 4.90394 14.1903 4.84629C14.3824 4.78865 14.5572 4.68423 14.699 4.54242C14.8408 4.4006 14.9452 4.22581 15.0029 4.03371C15.0605 3.84161 15.0696 3.63821 15.0293 3.44174C14.989 3.24527 14.9006 3.06187 14.772 2.90799C14.6433 2.7541 14.4785 2.63453 14.2923 2.56Z" fill="black" fill-opacity="0.063"/>
</svg>
