<svg width="22" height="16" viewBox="0 0 22 16" fill="none" xmlns="http://www.w3.org/2000/svg">
<path d="M16.5878 9.59811C16.4999 9.59811 16.4126 9.59811 16.3247 9.59811C11.4319 9.59811 6.53954 9.59861 1.64671 9.59761C0.690927 9.59761 -0.0145001 8.89457 0.000226974 7.96567C0.0134813 7.1347 0.674234 6.44165 1.49159 6.40218C1.58977 6.39768 1.68795 6.39918 1.78613 6.39918C6.62986 6.39918 11.4731 6.39918 16.3168 6.39918C16.4062 6.39918 16.495 6.39918 16.6448 6.39918C16.552 6.30124 16.495 6.23828 16.4361 6.17832C15.3085 5.02907 14.1799 3.88081 13.0528 2.73155C12.6095 2.27984 12.452 1.74419 12.6493 1.13158C12.8466 0.51998 13.2654 0.137726 13.8928 0.0252991C14.4126 -0.0676408 14.8608 0.0982527 15.2334 0.477508C15.7891 1.04264 16.3443 1.60778 16.9 2.17341C18.4277 3.72841 19.951 5.2869 21.4851 6.8354C21.9185 7.27311 22.107 7.78079 21.9391 8.3749C21.8655 8.63523 21.7173 8.90406 21.5307 9.09594C19.4346 11.2495 17.3281 13.3932 15.2172 15.5318C14.5928 16.1639 13.6429 16.1499 13.0396 15.5268C12.4151 14.8822 12.4029 13.9383 13.0327 13.2892C14.1539 12.134 15.2864 10.9897 16.416 9.84245C16.4793 9.778 16.5559 9.72703 16.6261 9.67007C16.6133 9.64608 16.6006 9.6221 16.5878 9.59811Z" fill="white"/>
</svg>
