<svg width="24" height="24" viewBox="0 0 24 24" fill="none" xmlns="http://www.w3.org/2000/svg">
<path d="M15.2405 22.27H15.1105C10.6705 22.27 8.5305 20.52 8.1605 16.6C8.1205 16.19 8.4205 15.82 8.8405 15.78C9.2405 15.74 9.6205 16.05 9.6605 16.46C9.9505 19.6 11.4305 20.77 15.1205 20.77H15.2505C19.3205 20.77 20.7605 19.33 20.7605 15.26V8.73998C20.7605 4.66998 19.3205 3.22998 15.2505 3.22998H15.1205C11.4105 3.22998 9.9305 4.41998 9.6605 7.61998C9.6105 8.02998 9.2605 8.33998 8.8405 8.29998C8.4205 8.26998 8.1205 7.89998 8.1505 7.48998C8.4905 3.50998 10.6405 1.72998 15.1105 1.72998H15.2405C20.1505 1.72998 22.2505 3.82998 22.2505 8.73998V15.26C22.2505 20.17 20.1505 22.27 15.2405 22.27Z" fill="#6FCA3A"/>
<path d="M14.9991 12.75H3.61914C3.20914 12.75 2.86914 12.41 2.86914 12C2.86914 11.59 3.20914 11.25 3.61914 11.25H14.9991C15.4091 11.25 15.7491 11.59 15.7491 12C15.7491 12.41 15.4091 12.75 14.9991 12.75Z" fill="#6FCA3A"/>
<path d="M5.85141 16.1001C5.66141 16.1001 5.47141 16.0301 5.32141 15.8801L1.97141 12.5301C1.68141 12.2401 1.68141 11.7601 1.97141 11.4701L5.32141 8.12009C5.61141 7.83009 6.09141 7.83009 6.38141 8.12009C6.67141 8.41009 6.67141 8.89009 6.38141 9.18009L3.56141 12.0001L6.38141 14.8201C6.67141 15.1101 6.67141 15.5901 6.38141 15.8801C6.24141 16.0301 6.04141 16.1001 5.85141 16.1001Z" fill="#6FCA3A"/>
</svg>
