<svg width="30" height="30" viewBox="0 0 30 30" fill="none" xmlns="http://www.w3.org/2000/svg">
<g clip-path="url(#clip0_14_1795)">
<path d="M13.0949 29.9977C20.3269 29.9977 26.1897 24.1349 26.1897 16.9028C26.1897 9.67075 20.3269 3.80798 13.0949 3.80798C5.86276 3.80798 0 9.67075 0 16.9028C0 24.1349 5.86276 29.9977 13.0949 29.9977Z" fill="#6FCA3A"/>
<path d="M26.1893 16.9029C26.1893 24.1348 20.3263 29.9977 13.0944 29.9977C9.1702 29.9977 5.64853 28.2712 3.24902 25.5358C5.55396 27.5588 8.57487 28.7852 11.8819 28.7852C19.1138 28.7852 24.9768 22.9223 24.9768 15.6904C24.9768 12.3833 23.7503 9.36243 21.7273 7.0575C24.4627 9.45701 26.1893 12.9787 26.1893 16.9029Z" fill="#437D21"/>
<path d="M13.0948 26.7846C18.5524 26.7846 22.9766 22.3604 22.9766 16.9028C22.9766 11.4453 18.5524 7.02107 13.0948 7.02107C7.6373 7.02107 3.21309 11.4453 3.21309 16.9028C3.21309 22.3604 7.6373 26.7846 13.0948 26.7846Z" fill="#F5F5F5"/>
<path d="M22.9766 16.9028C22.9766 22.3602 18.5522 26.7846 13.0948 26.7846C10.0576 26.7846 7.34039 25.4139 5.52711 23.2581C7.24521 24.7021 9.46224 25.5721 11.8824 25.5721C17.3398 25.5721 21.7641 21.1477 21.7641 15.6903C21.7641 13.2702 20.8942 11.0532 19.4501 9.3351C21.6059 11.1484 22.9766 13.8656 22.9766 16.9028Z" fill="#E6E6E6"/>
<path d="M13.0945 23.5717C16.7775 23.5717 19.7631 20.5861 19.7631 16.9031C19.7631 13.22 16.7775 10.2344 13.0945 10.2344C9.41145 10.2344 6.42578 13.22 6.42578 16.9031C6.42578 20.5861 9.41145 23.5717 13.0945 23.5717Z" fill="#6FCA3A"/>
<path d="M19.764 16.9028C19.764 20.5857 16.7782 23.5715 13.0953 23.5715C10.945 23.5715 9.03166 22.5536 7.8125 20.9731C8.93829 21.8425 10.3502 22.359 11.8828 22.359C15.5657 22.359 18.5515 19.3732 18.5515 15.6903C18.5515 14.1577 18.035 12.7458 17.1656 11.62C18.7461 12.8392 19.764 14.7525 19.764 16.9028Z" fill="#437D21"/>
<path d="M13.0952 20.2979C14.9701 20.2979 16.4901 18.7779 16.4901 16.9029C16.4901 15.0279 14.9701 13.5079 13.0952 13.5079C11.2202 13.5079 9.7002 15.0279 9.7002 16.9029C9.7002 18.7779 11.2202 20.2979 13.0952 20.2979Z" fill="#F5F5F5"/>
<path d="M25.485 21.152C25.2289 21.8991 24.9052 22.6212 24.518 23.3096L21.5947 21.9462C21.9955 21.2732 22.318 20.5482 22.5502 19.7837L25.485 21.152Z" fill="#437D21"/>
<path d="M22.5494 19.7837C22.3196 20.5405 21.9987 21.2667 21.594 21.9462L18.6592 20.5779C19.0986 19.9158 19.4149 19.1797 19.5928 18.4052L22.5494 19.7837Z" fill="#E6E6E6"/>
<path d="M19.5932 18.4051C19.4152 19.1796 19.099 19.9157 18.6596 20.5779L15.6271 19.1641C16.1521 18.5761 16.4759 17.8043 16.4892 16.9574L19.5932 18.4051Z" fill="#437D21"/>
<path d="M16.4895 16.9574C16.4762 17.8043 16.1524 18.576 15.6274 19.1641L12.7872 17.8394C12.2319 17.5812 11.9724 16.9458 12.1706 16.3796C12.184 16.3426 12.1985 16.3057 12.2155 16.2687C12.3537 15.9728 12.598 15.7612 12.883 15.6576C13.1667 15.5545 13.491 15.5588 13.7863 15.697L16.4895 16.9574Z" fill="#E6E6E6"/>
<path d="M29.8986 5.46679C29.9957 5.48298 30.034 5.60211 29.9645 5.67195L28.6819 6.96046L27.895 7.751L25.7448 9.91055C25.6767 9.97896 25.5932 10.0301 25.5013 10.0597C25.4095 10.0894 25.3119 10.0967 25.2166 10.081L22.0095 9.55275L24.4115 7.17022L25.2075 6.38089L26.6715 4.92833L29.8986 5.46679Z" fill="#50758D"/>
<path d="M28.6815 6.96043L27.8946 7.75097L24.4111 7.17019L25.2071 6.38086L28.6815 6.96043Z" fill="#2B597F"/>
<path d="M25.1363 3.52855L23.6795 4.95382L22.8872 5.72921L20.4937 8.07113L19.9592 4.823C19.9436 4.72804 19.9508 4.63072 19.9802 4.5391C20.0097 4.44748 20.0605 4.36419 20.1285 4.29611L22.2876 2.13479L23.0775 1.34365L24.3845 0.035677C24.4545 -0.0344047 24.5744 0.00451611 24.59 0.102303L25.1363 3.52855Z" fill="#50758D"/>
<path d="M23.6799 4.95379L22.8875 5.72918L22.2879 2.13476L23.0779 1.34361L23.6799 4.95379Z" fill="#2B597F"/>
<path d="M27.9078 3.33268C27.9078 3.63459 27.7926 3.93772 27.5616 4.16809L14.1218 17.6079C13.689 18.0414 13.0033 18.068 12.5389 17.6879C12.5086 17.6631 12.4789 17.6364 12.4504 17.6079C12.3404 17.4983 12.2532 17.368 12.1938 17.2245C12.1344 17.081 12.104 16.9272 12.1043 16.7719C12.1043 16.47 12.2194 16.1669 12.4504 15.9365L25.8902 2.49668C26.3516 2.03472 27.1003 2.03472 27.5616 2.49668C27.5901 2.52517 27.6168 2.55487 27.6417 2.58519C27.8193 2.80222 27.9078 3.06715 27.9078 3.33268Z" fill="#918291"/>
<path d="M27.9078 3.33269C27.9078 3.6346 27.7926 3.93772 27.5616 4.16809L14.1218 17.6079C13.689 18.0414 13.0033 18.068 12.5389 17.6879L27.6417 2.58519C27.8193 2.80222 27.9078 3.06715 27.9078 3.33269Z" fill="#7A6E79"/>
</g>
<defs>
<clipPath id="clip0_14_1795">
<rect width="30" height="30" fill="white"/>
</clipPath>
</defs>
</svg>
