<svg width="25" height="24" viewBox="0 0 25 24" fill="none" xmlns="http://www.w3.org/2000/svg">
<path d="M24.6117 9.92381C24.6117 9.90726 24.6119 9.8909 24.611 9.87435C24.6353 8.22761 23.5859 8.00084 23.5859 8.00084L22.0964 7.81525L22.7706 8.77161L16.5943 8.11234C16.4666 8.09867 16.3546 8.01954 16.3019 7.90588L13.3713 1.58452C13.1796 1.17108 12.771 0.914276 12.3047 0.914276C11.8384 0.914276 11.4297 1.17108 11.2381 1.58452L8.30736 7.90588C8.25467 8.01954 8.14263 8.09867 8.01513 8.11234L1.83674 8.77197L2.51111 7.81543L1.02154 8.00102C1.02154 8.00102 -0.0331846 8.13158 0.000804168 9.79559V9.79631C0.000984003 9.80889 -9.60802e-05 9.81986 0.000263589 9.83263L0.00242179 9.83407C0.00422014 10.1452 0.136398 10.4443 0.38493 10.6638L5.54456 15.5057C5.63952 15.5897 5.68232 15.7177 5.65624 15.8398L4.20605 22.6288C4.13394 22.9661 4.21936 23.3109 4.44038 23.5751C4.66301 23.841 5.0038 24 5.35196 24C5.55266 24 5.75317 23.9475 5.93193 23.8482L12.1238 20.4092C12.1788 20.3787 12.2412 20.3625 12.3045 20.3625C12.3678 20.3625 12.4302 20.3787 12.4851 20.4092L18.677 23.8482C18.8557 23.9475 19.0563 24 19.2569 24C19.6051 23.9998 19.9457 23.8412 20.1683 23.5751C20.3894 23.3109 20.4748 22.966 20.4027 22.6288L18.9525 15.8396C18.9264 15.7175 18.9692 15.5897 19.0642 15.5057L24.2283 10.7617C24.4772 10.5417 24.6094 10.2423 24.6108 9.93064L24.6112 9.93046C24.6119 9.92795 24.6117 9.92597 24.6117 9.92381Z" fill="url(#paint0_linear_175_2571)"/>
<path d="M19.0662 23.0857C18.8711 23.0857 18.676 23.0332 18.5023 22.9339L12.4812 19.495C12.4278 19.4644 12.367 19.4482 12.3055 19.4482C12.244 19.4482 12.1832 19.4644 12.1298 19.495L6.10879 22.9339C5.93507 23.0332 5.73995 23.0857 5.54483 23.0857C5.20638 23.0857 4.87495 22.9269 4.65842 22.6608C4.44352 22.3966 4.36044 22.0517 4.43057 21.7145L5.84066 14.9256C5.86601 14.8034 5.82429 14.6754 5.73204 14.5914L0.600637 9.92777C0.265246 9.62277 0.143678 9.16563 0.283769 8.73439C0.42386 8.30314 0.790903 8.00444 1.24157 7.95498L8.13427 7.19806C8.25817 7.18457 8.36715 7.10544 8.41841 6.99161L11.2682 0.670243C11.4546 0.256803 11.852 0 12.3055 0C12.7589 0 13.1565 0.256803 13.3428 0.670243L16.1925 6.99161C16.2437 7.10526 16.3527 7.18439 16.4768 7.19806L23.3691 7.9548C23.82 8.00426 24.187 8.30314 24.3271 8.73439C24.4672 9.16563 24.3458 9.62295 24.0102 9.92777L18.8788 14.5914C18.7866 14.6754 18.7449 14.8034 18.7702 14.9254L20.1803 21.7147C20.2503 22.0519 20.1674 22.3968 19.9523 22.661C19.7361 22.9268 19.4047 23.0855 19.0662 23.0857Z" fill="url(#paint1_linear_175_2571)"/>
<path d="M12.9837 0.83118L15.8334 7.15255C15.9418 7.39316 16.1695 7.55861 16.4321 7.58739L23.3246 8.34431C23.9633 8.41444 24.2205 9.20554 23.7448 9.63786L18.6134 14.3015C18.418 14.479 18.3311 14.7468 18.3849 15.0052L19.795 21.7943C19.9257 22.4236 19.2526 22.9125 18.6947 22.5937L12.6737 19.1545C12.4444 19.0236 12.163 19.0236 11.9337 19.1545L5.91263 22.5937C5.35461 22.9123 4.68166 22.4234 4.81222 21.7943L6.22231 15.0052C6.27608 14.7466 6.18904 14.479 5.99374 14.3015L0.862338 9.63786C0.386856 9.20572 0.643839 8.41444 1.28261 8.34431L8.17513 7.58739C8.43751 7.55861 8.66518 7.39316 8.7738 7.15255L11.6235 0.83118C11.8878 0.245279 12.7197 0.245279 12.9837 0.83118Z" fill="url(#paint2_linear_175_2571)"/>
<path d="M19.7961 21.7942L18.386 15.005C18.3322 14.7464 18.4193 14.4788 18.6146 14.3014L23.746 9.6377C24.2215 9.20556 23.9645 8.41429 23.3257 8.34415L19.3557 7.90823C17.2236 9.9918 13.199 12.879 6.21049 14.6538C6.24178 14.7666 6.24808 14.8865 6.22344 15.005L4.81335 21.7942C4.68262 22.4234 5.35574 22.9124 5.91358 22.5935L11.9346 19.1544C12.1639 19.0234 12.4454 19.0234 12.6746 19.1544L18.6957 22.5935C19.2537 22.9124 19.9268 22.4234 19.7961 21.7942Z" fill="url(#paint3_linear_175_2571)"/>
<path opacity="0.44" d="M15.8352 7.15239L12.9855 0.831027C12.7213 0.245126 11.8896 0.245126 11.6254 0.831027L8.77575 7.15239C8.66731 7.39301 8.43964 7.55846 8.17708 7.58723L1.28456 8.34416C0.645792 8.41429 0.388809 9.20538 0.864292 9.63771L4.17163 12.6435C10.01 11.79 13.7813 9.14532 15.8882 7.24843C15.8684 7.21803 15.8503 7.1862 15.8352 7.15239Z" fill="url(#paint4_linear_175_2571)"/>
<path d="M12.074 4.68072C11.8119 5.4202 11.2999 5.91331 10.9302 5.78239C10.5605 5.65147 10.4731 4.9458 10.7351 4.2065C10.9971 3.46702 11.5091 2.97391 11.8788 3.10483C12.2486 3.23575 12.336 3.94124 12.074 4.68072Z" fill="#FFF8E1"/>
<path d="M10.9891 6.69648C10.9891 6.96695 10.7699 7.18635 10.4995 7.18635C10.229 7.18635 10.0098 6.96713 10.0098 6.69648C10.0098 6.42601 10.229 6.20679 10.4995 6.20679C10.7697 6.20661 10.9891 6.42601 10.9891 6.69648Z" fill="#FFF8E1"/>
<defs>
<linearGradient id="paint0_linear_175_2571" x1="12.306" y1="3.98635" x2="12.306" y2="18.6372" gradientUnits="userSpaceOnUse">
<stop stop-color="#FF8F00"/>
<stop offset="0.995" stop-color="#B13827"/>
</linearGradient>
<linearGradient id="paint1_linear_175_2571" x1="12.3055" y1="3.07213" x2="12.3055" y2="17.723" gradientUnits="userSpaceOnUse">
<stop stop-color="#FFF176"/>
<stop offset="1" stop-color="#FF8F00"/>
</linearGradient>
<linearGradient id="paint2_linear_175_2571" x1="11.4536" y1="6.9946" x2="14.0658" y2="14.5698" gradientUnits="userSpaceOnUse">
<stop stop-color="#FFCB28"/>
<stop offset="0.4132" stop-color="#FFCC2B"/>
<stop offset="0.5969" stop-color="#FFD032"/>
<stop offset="0.735" stop-color="#FFD63E"/>
<stop offset="0.8505" stop-color="#FFDF50"/>
<stop offset="0.9507" stop-color="#FFEA68"/>
<stop offset="1" stop-color="#FFF176"/>
</linearGradient>
<linearGradient id="paint3_linear_175_2571" x1="17.1891" y1="20.8925" x2="8.27526" y2="3.75044" gradientUnits="userSpaceOnUse">
<stop stop-color="#FFD54F"/>
<stop offset="0.4801" stop-color="#FFAF16"/>
<stop offset="0.6546" stop-color="#FFA000"/>
</linearGradient>
<linearGradient id="paint4_linear_175_2571" x1="7.92382" y1="5.35403" x2="5.76881" y2="-13.192" gradientUnits="userSpaceOnUse">
<stop stop-color="#FFF176"/>
<stop offset="1" stop-color="#FF8F00"/>
</linearGradient>
</defs>
</svg>
