<svg width="19" height="18" viewBox="0 0 19 18" fill="none" xmlns="http://www.w3.org/2000/svg">
<path fill-rule="evenodd" clip-rule="evenodd" d="M15.98 9.15339C15.98 8.67475 15.937 8.21452 15.8573 7.77271H9.5V10.3837H13.1327C12.9763 11.2275 12.5007 11.9424 11.7858 12.421V14.1146H13.9673C15.2436 12.9395 15.98 11.2091 15.98 9.15339Z" fill="#4285F4"/>
<path fill-rule="evenodd" clip-rule="evenodd" d="M9.5008 15.75C11.3233 15.75 12.8512 15.1455 13.9681 14.1146L11.7866 12.421C11.1822 12.826 10.409 13.0653 9.5008 13.0653C7.74273 13.0653 6.25466 11.8779 5.72386 10.2825H3.46875V12.0313C4.57943 14.2374 6.86216 15.75 9.5008 15.75Z" fill="#34A853"/>
<path fill-rule="evenodd" clip-rule="evenodd" d="M5.72307 10.2825C5.58807 9.87749 5.51136 9.44488 5.51136 8.99999C5.51136 8.55511 5.58807 8.12249 5.72307 7.71749V5.96863H3.46795C3.0108 6.87988 2.75 7.91079 2.75 8.99999C2.75 10.0892 3.0108 11.1201 3.46795 12.0314L5.72307 10.2825Z" fill="#FBBC05"/>
<path fill-rule="evenodd" clip-rule="evenodd" d="M9.5008 4.93466C10.4918 4.93466 11.3816 5.27523 12.0811 5.94409L14.0172 4.00807C12.8482 2.91886 11.3202 2.25 9.5008 2.25C6.86216 2.25 4.57943 3.76261 3.46875 5.96864L5.72386 7.7175C6.25466 6.12205 7.74273 4.93466 9.5008 4.93466Z" fill="#EA4335"/>
</svg>
