<svg width="21" height="20" viewBox="0 0 21 20" fill="none" xmlns="http://www.w3.org/2000/svg">
<path fill-rule="evenodd" clip-rule="evenodd" d="M0.810216 5.82274C0.291016 6.77128 0.291016 7.91549 0.291016 10.2039V11.725C0.291016 15.6258 0.291016 17.5763 1.46259 18.7881C2.63416 20 4.51978 20 8.29102 20H12.291C16.0623 20 17.9479 20 19.1194 18.7881C20.291 17.5763 20.291 15.6258 20.291 11.725V10.2039C20.291 7.91549 20.291 6.77128 19.7718 5.82274C19.2526 4.87421 18.3041 4.28551 16.407 3.10812L14.407 1.86687C12.4016 0.62229 11.399 0 10.291 0C9.18308 0 8.1804 0.62229 6.17505 1.86687L4.17505 3.10813C2.27796 4.28551 1.32942 4.87421 0.810216 5.82274ZM9.54102 16C9.54102 16.4142 9.8768 16.75 10.291 16.75C10.7052 16.75 11.041 16.4142 11.041 16V13C11.041 12.5858 10.7052 12.25 10.291 12.25C9.8768 12.25 9.54102 12.5858 9.54102 13V16Z" fill="#6FCA3A"/>
</svg>
