<svg width="12" height="14" viewBox="0 0 12 14" fill="none" xmlns="http://www.w3.org/2000/svg">
<path d="M6.17724 3.23951C6.76196 3.23951 7.49493 2.8442 7.93141 2.31713C8.32672 1.83946 8.61496 1.17238 8.61496 0.505303C8.61496 0.414712 8.60673 0.32412 8.59026 0.25C7.93965 0.274707 7.15727 0.686485 6.68784 1.23827C6.31724 1.65828 5.97958 2.31713 5.97958 2.99244C5.97958 3.09127 5.99606 3.1901 6.00429 3.22304C6.04547 3.23127 6.11135 3.23951 6.17724 3.23951ZM4.11835 13.2045C4.9172 13.2045 5.27133 12.6692 6.26783 12.6692C7.2808 12.6692 7.50316 13.1881 8.39261 13.1881C9.26558 13.1881 9.8503 12.381 10.4021 11.5904C11.0198 10.6845 11.2751 9.79502 11.2915 9.75384C11.2339 9.73737 9.56206 9.05382 9.56206 7.13493C9.56206 5.47135 10.8797 4.72191 10.9539 4.66426C10.0809 3.41246 8.75497 3.37951 8.39261 3.37951C7.41257 3.37951 6.61372 3.97248 6.11135 3.97248C5.56781 3.97248 4.85131 3.41246 4.00305 3.41246C2.38888 3.41246 0.75 4.74662 0.75 7.2667C0.75 8.83146 1.35943 10.4868 2.10887 11.5574C2.75124 12.4633 3.31126 13.2045 4.11835 13.2045Z" fill="black"/>
</svg>
