<svg width="18" height="14" viewBox="0 0 18 14" fill="none" xmlns="http://www.w3.org/2000/svg">
<path d="M16.5099 0.453065H12.141C11.4107 0.452569 10.702 0.700829 10.1317 1.15695C9.56138 1.61307 9.16342 2.24984 9.00337 2.96238C8.84296 2.25004 8.44489 1.6135 7.87465 1.15744C7.3044 0.701389 6.59593 0.452978 5.86575 0.453065H1.50019C1.10236 0.453214 0.720867 0.611317 0.439559 0.892624C0.158252 1.17393 0.000149083 1.55542 0 1.95325V9.63475C0.000149083 10.0326 0.158252 10.4141 0.439559 10.6954C0.720867 10.9767 1.10236 11.1348 1.50019 11.1349H4.30312C7.497 11.1349 8.44987 11.8971 8.90606 13.4789C8.928 13.5666 9.06863 13.5666 9.09338 13.4789C9.55294 11.8977 10.5058 11.1349 13.6963 11.1349H16.4992C16.8971 11.1348 17.2786 10.9767 17.5599 10.6954C17.8412 10.4141 17.9993 10.0326 17.9994 9.63475V1.95663C17.9995 1.56014 17.8428 1.17971 17.5636 0.898197C17.2844 0.616683 16.9053 0.456892 16.5088 0.453627L16.5099 0.453065ZM7.56281 8.74656C7.56296 8.76094 7.56024 8.77519 7.55481 8.7885C7.54938 8.80181 7.54135 8.8139 7.53119 8.82406C7.52102 8.83423 7.50893 8.84226 7.49563 8.84769C7.48232 8.85312 7.46806 8.85584 7.45369 8.85569H2.44406C2.42971 8.85576 2.41549 8.85299 2.40221 8.84753C2.38894 8.84208 2.37688 8.83404 2.36673 8.82389C2.35659 8.81375 2.34855 8.80169 2.34309 8.78841C2.33763 8.77514 2.33486 8.76092 2.33494 8.74656V8.03106C2.33494 7.972 2.38162 7.92194 2.44406 7.92194H7.4565C7.51556 7.92194 7.56563 7.96863 7.56563 8.03106V8.74656H7.56281ZM7.56281 6.84363C7.56289 6.85798 7.56012 6.8722 7.55466 6.88548C7.5492 6.89875 7.54116 6.91081 7.53102 6.92096C7.52087 6.9311 7.50881 6.93914 7.49554 6.9446C7.48226 6.95005 7.46804 6.95283 7.45369 6.95275H2.44406C2.42971 6.95283 2.41549 6.95005 2.40221 6.9446C2.38894 6.93914 2.37688 6.9311 2.36673 6.92096C2.35659 6.91081 2.34855 6.89875 2.34309 6.88548C2.33763 6.8722 2.33486 6.85798 2.33494 6.84363V6.12813C2.33494 6.0685 2.38162 6.019 2.44406 6.019H7.4565C7.51556 6.019 7.56563 6.06569 7.56563 6.12813V6.84363H7.56281ZM7.56281 4.94069C7.56289 4.95504 7.56012 4.96926 7.55466 4.98254C7.5492 4.99581 7.54116 5.00787 7.53102 5.01802C7.52087 5.02817 7.50881 5.0362 7.49554 5.04166C7.48226 5.04712 7.46804 5.04989 7.45369 5.04981H2.44406C2.42971 5.04989 2.41549 5.04712 2.40221 5.04166C2.38894 5.0362 2.37688 5.02817 2.36673 5.01802C2.35659 5.00787 2.34855 4.99581 2.34309 4.98254C2.33763 4.96926 2.33486 4.95504 2.33494 4.94069V4.22519C2.33494 4.16613 2.38162 4.11606 2.44406 4.11606H7.4565C7.51556 4.11606 7.56563 4.16275 7.56563 4.22519V4.94069H7.56281ZM15.6662 8.74375C15.6663 8.7581 15.6635 8.77233 15.658 8.7856C15.6526 8.79887 15.6445 8.81093 15.6344 8.82108C15.6242 8.83123 15.6122 8.83926 15.5989 8.84472C15.5856 8.85018 15.5714 8.85295 15.5571 8.85288H10.5474C10.5331 8.85295 10.5189 8.85018 10.5056 8.84472C10.4923 8.83926 10.4803 8.83123 10.4701 8.82108C10.46 8.81093 10.4519 8.79887 10.4465 8.7856C10.441 8.77233 10.4382 8.7581 10.4383 8.74375V8.02825C10.4383 7.96919 10.485 7.91913 10.5474 7.91913H15.5599C15.6195 7.91913 15.669 7.96581 15.669 8.02825V8.74375H15.6662ZM15.6662 6.84081C15.6663 6.85519 15.6636 6.86944 15.6582 6.88275C15.6528 6.89606 15.6447 6.90815 15.6346 6.91831C15.6244 6.92848 15.6123 6.93651 15.599 6.94194C15.5857 6.94737 15.5714 6.95009 15.5571 6.94994H10.5474C10.5331 6.95001 10.5189 6.94724 10.5056 6.94178C10.4923 6.93633 10.4803 6.92829 10.4701 6.91814C10.46 6.908 10.4519 6.89594 10.4465 6.88266C10.441 6.86939 10.4382 6.85517 10.4383 6.84081V6.12531C10.4383 6.06625 10.485 6.01619 10.5474 6.01619H15.5599C15.6195 6.01619 15.669 6.06288 15.669 6.12531V6.84081H15.6662ZM15.6662 4.93731C15.6663 4.95167 15.6635 4.96589 15.658 4.97916C15.6526 4.99244 15.6445 5.0045 15.6344 5.01464C15.6242 5.02479 15.6122 5.03283 15.5989 5.03828C15.5856 5.04374 15.5714 5.04651 15.5571 5.04644H10.5474C10.5331 5.04651 10.5189 5.04374 10.5056 5.03828C10.4923 5.03283 10.4803 5.02479 10.4701 5.01464C10.46 5.0045 10.4519 4.99244 10.4465 4.97916C10.441 4.96589 10.4382 4.95167 10.4383 4.93731V4.22463C10.4383 4.16556 10.485 4.1155 10.5474 4.1155H15.5599C15.6195 4.1155 15.669 4.16219 15.669 4.22463V4.93731H15.6662Z" fill="white"/>
</svg>
